{"title":"The Guillotines 2012 BRRip 480p x264 AAC - VYTO [P2PDL]","uid":8594383,"size":374550151,"categoryP":"video","categoryS":"movies","magnet":"?xt=urn:btih:36cae18d3e58cc357c8f05e9ab044a52f7d60abc&amp;dn=The+Guillotines+2012+BRRip+480p+x264+AAC+-+VYTO+%5BP2PDL%5D&amp;tr=udp%3A%2F%2Ftracker.openbittorrent.com%3A80&amp;tr=udp%3A%2F%2Fopen.demonii.com%3A1337&amp;tr=udp%3A%2F%2Ftracker.coppersurfer.tk%3A6969&amp;tr=udp%3A%2F%2Fexodus.desync.com%3A6969","seeders":1,"leechers":2,"uploader":"ValidusVyto","files":-1,"time":1371722103,"description":"_______ Visit us at our Semi Public Bittorrent Community ________\n  &lt;a href=&quot;\nhttp://p2pdl.com&quot; rel=&quot;nofollow&quot; target=&quot;_NEW&quot;&gt;\nhttp://p2pdl.com&lt;/a&gt;  _____________________________ &lt;a href=&quot; http://p2pdl.com&quot; rel=&quot;nofollow&quot; target=&quot;_NEW&quot;&gt; http://p2pdl.com&lt;/a&gt;\n\n\nThe Guillotines 2012 BRRip 480p x264 AAC - VYTO\n\n\nOriginal Title: Xue Di Zi\nGenre: Action | Drama\nPlot: An elite crime-fighting unit in the court of the Chinese emperor relies on'\nflying swords to defeat their enemies.   \nDirector: Wai-keung Lau\nStars: Xiaoming Huang, Ethan Juan, Purba Rgyal.\nRated: R for strong violent content.\n\nInfo: &lt;a href=&quot;\nhttp://www.imdb.com/title/tt1847713/&quot; rel=&quot;nofollow&quot; target=&quot;_NEW&quot;&gt;\nhttp://www.imdb.com/title/tt1847713/&lt;/a&gt;\n\n\nFormat                         : MPEG-4\nFile size                      : 351 MiB\nDuration                       : 1h 53mn\nOverall bit rate               : 434 Kbps\nSource                         : 720p BluRay DD5.1 x264-TayTO\n\nVideo\nFormat                         : AVC\nBit rate                       : 392 Kbps\nWidth                          : 720 pixels\nHeight                         : 304 pixels\nDisplay aspect ratio           : 2.35:1\nFrame rate mode                : Constant\nFrame rate                     : 24.000 fps\nStream size                    : 316 MiB (90%)\nWriting library                : x264 core 130 r2273\n\nAudio\nFormat                         : AAC\nBit rate mode                  : Variable\nBit rate                       : 40.0 Kbps\nChannel(s)                     : 2 channels\nChannel positions              : Front: L R\nSampling rate                  : 48.0 KHz\nStream size                    : 32.3 MiB (9%)\nLanguage                       : Chinese\n\nSubtitle                       : Yes(English)\n &lt;a href=&quot;\nhttp://ultraimg.com/images/nsZgT.png&quot; rel=&quot;nofollow&quot; target=&quot;_NEW&quot;&gt;\nhttp://ultraimg.com/images/nsZgT.png&lt;/a&gt; &lt;a href=&quot;\nhttp://ultraimg.com/images/LfpFl.png&quot; rel=&quot;nofollow&quot; target=&quot;_NEW&quot;&gt;\nhttp://ultraimg.com/images/LfpFl.png&lt;/a&gt; &lt;a href=&quot;\nhttp://ultraimg.com/images/FBjV.png&quot; rel=&quot;nofollow&quot; target=&quot;_NEW&quot;&gt;\nhttp://ultraimg.com/images/FBjV.png&lt;/a&gt; &lt;a href=&quot;\nhttp://ultraimg.com/images/iJQvr.png&quot; rel=&quot;nofollow&quot; target=&quot;_NEW&quot;&gt;\nhttp://ultraimg.com/images/iJQvr.png&lt;/a&gt; &lt;a href=&quot;\nhttp://ultraimg.com/images/7OlFx.png&quot; rel=&quot;nofollow&quot; target=&quot;_NEW&quot;&gt;\nhttp://ultraimg.com/images/7OlFx.png&lt;/a&gt; &lt;a href=&quot;\nhttp://ultraimg.com/images/rTbvh.png&quot; rel=&quot;nofollow&quot; target=&quot;_NEW&quot;&gt;\nhttp://ultraimg.com/images/rTbvh.png&lt;/a&gt;\n\n----------------------------------------------------------------------------------------------------\n\n\nEncoded using revolutionary 10bit encoding, which enables us to provide you more crispier \nand sharper images at small sizes, just make sure you follow our instructions without a fault.\nRecommend to you to use latest version of VLC player. Install K-Lite Codec Pack or shark007 codecs\nin case of any kind of problem in playback (For non-VLC Media Player users). Alternatively, install\nCore AVC codecs, the fastest decoder that there is coupled with Community Center Codec Pack and play\non Windows Media Player Classic. Check sample to be sure.\nEnjoy!\n\nEncoder Notes:Looking For Early Access To Anything You Can Provide DVDScr, R5, DVDR, BluRay, Direct\nAudio, Music Releases and Seedboxes. We require dedicated servers, so as to do more \nand fast releases of movies.\nIf You Got anything to offer please contact us at &quot;&lt;a class=&quot;__cf_email__&quot; href=&quot;/cdn-cgi/l/email-protection&quot; data-cfemail=&quot;a6c5c9c8d2c7c5d2e6d694d6c2ca88c5c9cb&quot;&gt;[email&amp;#160;protected]&lt;/a&gt;&lt;script cf-hash='f9e31' type=&quot;text/javascript&quot;&gt;\n/* &lt;![CDATA[ */!function(){try{var t=&quot;currentScript&quot;in document?document.currentScript:function(){for(var t=document.getElementsByTagName(&quot;script&quot;),e=t.length;e--;)if(t[e].getAttribute(&quot;cf-hash&quot;))return t[e]}();if(t&amp;&amp;t.previousSibling){var e,r,n,i,c=t.previousSibling,a=c.getAttribute(&quot;data-cfemail&quot;);if(a){for(e=&quot;&quot;,r=parseInt(a.substr(0,2),16),n=2;a.length-n;n+=2)i=parseInt(a.substr(n,2),16)^r,e+=String.fromCharCode(i);e=document.createTextNode(e),c.parentNode.replaceChild(e,c)}}}catch(u){}}();/* ]]&gt; */&lt;/script&gt;&quot;.\n\nFace book Fan Page:   &lt;a href=&quot;\nhttp://fbl.me/BC&quot; rel=&quot;nofollow&quot; target=&quot;_NEW&quot;&gt;\nhttp://fbl.me/BC&lt;/a&gt;","torrent":{"xt":"urn:btih:36cae18d3e58cc357c8f05e9ab044a52f7d60abc","amp;dn":"The+Guillotines+2012+BRRip+480p+x264+AAC+-+VYTO+%5BP2PDL%5D","amp;tr":["udp%3A%2F%2Ftracker.openbittorrent.com%3A80","udp%3A%2F%2Fopen.demonii.com%3A1337","udp%3A%2F%2Ftracker.coppersurfer.tk%3A6969","udp%3A%2F%2Fexodus.desync.com%3A6969"],"infoHash":"36cae18d3e58cc357c8f05e9ab044a52f7d60abc","infoHashBuffer":{"type":"Buffer","data":[54,202,225,141,62,88,204,53,124,143,5,233,171,4,74,82,247,214,10,188]},"announce":[],"urlList":[]}}